<svg width="40" height="40" viewBox="0 0 40 40" fill="none" xmlns="http://www.w3.org/2000/svg">
<circle cx="20" cy="20" r="20" fill="#F03891" fill-opacity="0.25"/>
<g clip-path="url(#clip0_2499_1919)">
<path d="M28.8401 12.6099C28.3294 12.0989 27.7229 11.6935 27.0555 11.417C26.388 11.1404 25.6726 10.998 24.9501 10.998C24.2276 10.998 23.5122 11.1404 22.8448 11.417C22.1773 11.6935 21.5709 12.0989 21.0601 12.6099L20.0001 13.6699L18.9401 12.6099C17.9084 11.5782 16.5092 10.9986 15.0501 10.9986C13.5911 10.9986 12.1918 11.5782 11.1601 12.6099C10.1284 13.6416 9.54883 15.0408 9.54883 16.4999C9.54883 17.9589 10.1284 19.3582 11.1601 20.3899L12.2201 21.4499L20.0001 29.2299L27.7801 21.4499L28.8401 20.3899C29.3511 19.8791 29.7565 19.2727 30.033 18.6052C30.3096 17.9378 30.4519 17.2224 30.4519 16.4999C30.4519 15.7774 30.3096 15.062 30.033 14.3945C29.7565 13.7271 29.3511 13.1206 28.8401 12.6099Z" stroke="#F03891" stroke-width="2" stroke-linecap="round" stroke-linejoin="round"/>
</g>
<defs>
<clipPath id="clip0_2499_1919">
<rect width="24" height="24" fill="white" transform="translate(8 8)"/>
</clipPath>
</defs>
</svg>
