<svg width="375" height="299" viewBox="0 0 375 299" fill="none" xmlns="http://www.w3.org/2000/svg">
<rect width="375" height="257.084" fill="#FEE05B"/>
<mask id="mask0_1_1980" style="mask-type:alpha" maskUnits="userSpaceOnUse" x="0" y="2" width="375" height="297">
<rect y="2.79443" width="375" height="296.206" fill="#FEE05B"/>
</mask>
<g mask="url(#mask0_1_1980)">
<path d="M432 229.881C432 256.217 409.231 277.566 381.145 277.566C353.058 277.566 326 251.766 326 225.431C326 199.095 348.769 177.746 376.855 177.746C404.942 177.746 432 203.546 432 229.881Z" fill="white"/>
<path d="M362 247.241C362 273.577 339.231 294.926 311.145 294.926C283.058 294.926 256 269.126 256 242.791C256 216.455 278.769 195.106 306.855 195.106C334.942 195.106 362 220.906 362 247.241Z" fill="white"/>
<path d="M289 284.456C289 308.215 268.379 327.476 242.942 327.476C217.505 327.476 193 304.2 193 280.441C193 256.682 213.621 237.421 239.058 237.421C264.495 237.421 289 260.697 289 284.456Z" fill="white"/>
<path d="M207 285.541C207 309.3 186.379 328.561 160.942 328.561C135.505 328.561 111 305.285 111 281.526C111 257.767 131.621 238.506 157.058 238.506C182.495 238.506 207 261.782 207 285.541Z" fill="white"/>
<ellipse cx="83.5" cy="258.579" rx="41.5" ry="40.6876" fill="white"/>
<ellipse cx="17" cy="237.421" rx="56" ry="47.7401" fill="white"/>
</g>
</svg>
